<!DOCTYPE svg PUBLIC "-//W3C//DTD SVG 1.1//EN" "http://www.w3.org/Graphics/SVG/1.1/DTD/svg11.dtd">
<!-- Uploaded to: SVG Repo, www.svgrepo.com, Transformed by: SVG Repo Mixer Tools -->
<svg fill="#F0002C" width="100px" height="100px" viewBox="0 0 64 64" id="Layer_1_1_" version="1.1" xml:space="preserve" xmlns="http://www.w3.org/2000/svg" xmlns:xlink="http://www.w3.org/1999/xlink">
<g id="SVGRepo_bgCarrier" stroke-width="0"/>
<g id="SVGRepo_tracerCarrier" stroke-linecap="round" stroke-linejoin="round"/>
<g id="SVGRepo_iconCarrier">
<path d="M49,43V31h-2V11c1.103,0,2-0.897,2-2V7c0-1.103-0.897-2-2-2h-7V4c0-1.654-1.346-3-3-3H27c-1.654,0-3,1.346-3,3v1h-7 c-1.103,0-2,0.897-2,2v2c0,1.103,0.897,2,2,2v20h-2v12h-2v9.414L19.586,59H21v4h22v-4h1.414L51,52.414V43H49z M26,4 c0-0.552,0.449-1,1-1h10c0.551,0,1,0.448,1,1v1H26V4z M16.999,7H17h30v2H17L16.999,7z M19,11h2v18h2V11h6v18h2V11h6v18h2V11h6v20h-2 V13h-2v18h-6V13h-2v18h-6V13h-2v18h-6V11z M17,37h27.8v-2H17v-2h30v6H19.2v2H47v2H17V37z M49,45v2H17v2h32v2H15v-6H49z M41,61H23v-2 h18V61z M43.586,57H20.414l-4-4h31.172L43.586,57z"/>
</g>
</svg>