<!DOCTYPE svg PUBLIC "-//W3C//DTD SVG 1.1//EN" "http://www.w3.org/Graphics/SVG/1.1/DTD/svg11.dtd">
<!-- Uploaded to: SVG Repo, www.svgrepo.com, Transformed by: SVG Repo Mixer Tools -->
<svg fill="#F0002C" height="100px" width="100px" version="1.1" id="Layer_1" xmlns="http://www.w3.org/2000/svg" xmlns:xlink="http://www.w3.org/1999/xlink" viewBox="0 0 512 512" xml:space="preserve">
<g id="SVGRepo_bgCarrier" stroke-width="0"/>
<g id="SVGRepo_tracerCarrier" stroke-linecap="round" stroke-linejoin="round"/>
<g id="SVGRepo_iconCarrier"> <g> <g> <g> <path d="M296.969,152.42l4.241,1.681c8.67,3.558,18.603,1.51,25.37-5.214l54.827-54.63 C352.273,71.584,318.097,57.41,281.6,52.861v77.397C281.6,140.106,287.633,148.802,296.969,152.42z"/> <path d="M215.968,356.42l-2.594-1.118c-8.781-3.857-19.396-1.758-26.377,5.222l-56.858,56.875 c29.227,22.869,63.565,37.171,100.258,41.745v-80.956C230.398,368.674,224.732,360.124,215.968,356.42z"/> <path d="M153.714,296.878c-3.908-9.31-12.553-15.292-22.042-15.292h-0.017l-78.797,0.009 c4.531,36.369,18.628,70.451,41.156,99.516l55.757-55.757c6.903-6.912,8.661-17.596,4.471-27.23L153.714,296.878z"/> <path d="M209.644,153.42c2.031-0.93,4.087-1.809,6.187-2.637c8.73-3.379,14.575-12.365,14.575-22.357V52.863 c-36.702,4.574-71.04,18.876-100.267,41.745l53.7,53.709C190.802,155.28,201.161,157.337,209.644,153.42z"/> <path d="M152.51,214.312l0.964-2.449c3.789-9.267,1.886-19.61-4.838-26.342l-54.622-54.622 c-22.528,29.065-36.617,63.138-41.156,99.507h77.269C140,230.406,148.781,224.091,152.51,214.312z"/> <path d="M359.997,215.687c3.226,8.806,12.023,14.72,21.879,14.72h77.269c-4.565-36.582-18.79-70.81-41.523-99.968l-54.528,54.315 v0.009c-6.801,6.767-8.96,16.922-5.359,25.267C358.538,211.89,359.289,213.775,359.997,215.687z"/> <path d="M256,0C114.842,0,0,114.842,0,256s114.842,256,256,256s256-114.842,256-256S397.158,0,256,0z M418.62,109.218 c2.372,0.094,4.599,1.178,6.144,2.987c30.515,35.763,48.614,79.351,52.335,126.054c0.188,2.381-0.623,4.719-2.236,6.468 s-3.891,2.739-6.272,2.739h-86.716c-16.99,0-32.213-10.402-37.897-25.89c-0.597-1.613-1.229-3.208-1.911-4.787 c-6.349-14.72-2.731-32.452,8.986-44.126l61.201-60.962C413.926,110.02,416.239,109.09,418.62,109.218z M264.533,43.409 c0-2.381,0.998-4.651,2.739-6.263c1.758-1.621,4.105-2.441,6.468-2.244c46.635,3.712,90.172,21.768,125.926,52.215 c1.809,1.553,2.893,3.789,2.987,6.17c0.094,2.381-0.811,4.702-2.5,6.374l-61.534,61.312c-7.825,7.799-18.176,11.93-28.681,11.93 c-5.12,0-10.283-0.981-15.206-3.004l-3.934-1.562c-15.957-6.195-26.266-21.137-26.266-38.076V43.409z M324.267,256 c0,4.719-3.823,8.533-8.533,8.533S307.2,260.719,307.2,256c0-4.71,3.823-8.533,8.533-8.533S324.267,251.29,324.267,256z M256,187.733c4.71,0,8.533,3.823,8.533,8.533c0,4.719-3.823,8.533-8.533,8.533s-8.533-3.814-8.533-8.533 C247.467,191.556,251.29,187.733,256,187.733z M111.889,87.501c35.831-30.677,79.531-48.862,126.37-52.599 c2.364-0.196,4.719,0.623,6.468,2.244c1.741,1.613,2.739,3.883,2.739,6.263v85.018c0,16.981-10.223,32.35-25.438,38.272 c-1.758,0.683-3.507,1.425-5.231,2.219h-0.008c-5.137,2.372-10.641,3.516-16.154,3.516c-10.505,0-21.001-4.181-28.86-12.049 l-60.365-60.365c-1.681-1.681-2.586-3.985-2.492-6.366C109.013,91.281,110.089,89.054,111.889,87.501z M204.8,256 c0,4.719-3.823,8.533-8.533,8.533s-8.533-3.814-8.533-8.533c0-4.71,3.823-8.533,8.533-8.533S204.8,251.29,204.8,256z M34.901,238.259c3.703-46.49,21.666-89.924,51.942-125.611c1.553-1.818,3.78-2.901,6.161-3.004 c2.347-0.205,4.693,0.811,6.383,2.492l61.32,61.321c11.597,11.605,14.959,29.218,8.568,44.868l-0.811,2.057 c-6.281,16.461-21.325,27.085-38.34,27.085H43.409c-2.381,0-4.651-0.99-6.272-2.739C35.524,242.978,34.714,240.64,34.901,238.259 z M93.355,402.372c-0.119,0-0.23,0-0.35-0.009c-2.381-0.102-4.608-1.186-6.161-3.004c-30.276-35.686-48.239-79.13-51.942-125.619 c-0.188-2.381,0.623-4.719,2.236-6.468c1.621-1.749,3.891-2.748,6.272-2.748l88.243-0.009h0.026 c16.384,0,31.198,10.095,37.751,25.711l0.486,1.152c6.98,16.06,3.814,34.15-8.081,46.037l-62.447,62.455 C97.783,401.468,95.616,402.372,93.355,402.372z M247.467,468.599c0,2.381-0.998,4.642-2.739,6.263 c-1.587,1.468-3.652,2.27-5.794,2.27c-0.222,0-0.452-0.008-0.674-0.026c-46.839-3.738-90.539-21.922-126.37-52.599 c-1.8-1.553-2.876-3.78-2.97-6.153c-0.094-2.381,0.811-4.685,2.492-6.366l63.522-63.531c11.904-11.895,30.123-15.42,45.321-8.772 l2.364,1.015c15.095,6.366,24.849,21.086,24.849,37.487V468.599z M256,324.267c-4.71,0-8.533-3.814-8.533-8.533 c0-4.71,3.823-8.533,8.533-8.533s8.533,3.823,8.533,8.533C264.533,320.452,260.71,324.267,256,324.267z M399.659,424.875 c-35.738,30.464-79.283,48.521-125.918,52.233c-0.222,0.017-0.444,0.026-0.674,0.026c-2.133,0-4.207-0.802-5.794-2.27 c-1.741-1.621-2.739-3.883-2.739-6.263v-90.445c0-16.853,10.53-32.137,26.197-38.033l2.065-0.794 c14.848-5.794,31.88-2.193,43.281,9.182l64.068,63.838c1.69,1.681,2.603,3.985,2.509,6.374 C402.56,421.103,401.476,423.339,399.659,424.875z M477.099,273.749c-3.721,46.703-21.82,90.291-52.335,126.054 c-1.545,1.809-3.772,2.893-6.144,2.987c-0.119,0.009-0.239,0.009-0.35,0.009c-2.253,0-4.42-0.896-6.016-2.492l-63.181-62.942 c-11.802-11.75-15.275-29.218-8.849-44.493l1.178-2.859c6.255-15.479,20.983-25.481,37.513-25.481h89.677 c2.381,0,4.659,0.998,6.272,2.748S477.286,271.369,477.099,273.749z"/> <path d="M357.227,296.42l-1.263,3.063c-3.721,8.849-1.698,18.961,5.154,25.796l56.508,56.294 c22.733-29.158,36.958-63.394,41.523-99.968h-80.23C369.378,281.606,360.862,287.417,357.227,296.42z"/> <path d="M307.349,353.674c-2.833,0-5.692,0.521-8.414,1.579l-2.133,0.819c-9.114,3.43-15.198,12.297-15.198,22.084v80.99 c36.489-4.548,70.673-18.731,99.797-41.395l-57.37-57.156C319.508,356.089,313.467,353.674,307.349,353.674z"/> </g> </g> </g> </g>
</svg>