<!DOCTYPE svg PUBLIC "-//W3C//DTD SVG 1.1//EN" "http://www.w3.org/Graphics/SVG/1.1/DTD/svg11.dtd">
<!-- Uploaded to: SVG Repo, www.svgrepo.com, Transformed by: SVG Repo Mixer Tools -->
<svg fill="#F0002C" height="100px" width="100px" version="1.1" id="Layer_1" xmlns="http://www.w3.org/2000/svg" xmlns:xlink="http://www.w3.org/1999/xlink" viewBox="0 0 511.999 511.999" xml:space="preserve">
<g id="SVGRepo_bgCarrier" stroke-width="0"/>
<g id="SVGRepo_tracerCarrier" stroke-linecap="round" stroke-linejoin="round"/>
<g id="SVGRepo_iconCarrier"> <g> <g> <path d="M500.091,24.252c-15.915-15.915-41.675-15.917-57.591,0L401.7,65.051c-16.735-8.448-37.866-5.829-52.079,8.383 c-2.43,2.43-134.064,134.064-139.457,139.458c-9.051-8.675-20.886-13.451-33.462-13.451c-12.928,0-25.083,5.035-34.225,14.176 l-21.141,21.139c-6.629,6.629-6.634,17.391,0,24.023l21.47,21.47l-22.625,22.625c131.36,83.667,122.624,78.07,123.715,78.858 l0.197-0.197l21.47,21.47c6.632,6.634,17.39,6.635,24.023,0l21.14-21.14c18.622-18.623,18.854-48.761,0.724-67.687 c6.511-6.511,134.294-134.294,139.458-139.458c14.065-14.065,16.846-35.192,8.369-52.065l40.814-40.813 C515.968,65.963,515.968,40.128,500.091,24.252z"/> </g> </g> <g> <g> <path d="M95.584,327.471c-21.128,21.128-22.241,22.241-24.887,24.888c131.354,83.663,122.626,78.071,123.715,78.857l24.914-24.914 C217.889,405.386,96.704,328.209,95.584,327.471z"/> </g> </g> <g> <g> <path d="M46.319,377.11c-0.076-0.049-0.143-0.106-0.218-0.156l-31.285,31.285c-19.755,19.755-19.755,51.9,0,71.654l14.816,14.816 c6.632,6.634,17.39,6.635,24.023,0c6.634-6.634,6.634-17.388,0-24.023L38.84,455.87c-6.524-6.525-6.525-17.083,0-23.609 l18.902-18.902c-5.764,14.738-2.701,32.13,9.205,44.036c15.745,15.745,41.085,16.027,57.188,0.869 c6.124,3.031,12.906,4.645,19.939,4.645c9.049,0,17.691-2.655,25.038-7.591L46.319,377.11z"/> </g> </g> </g>
</svg>